PathFileType	4	(X/Y/Z)	C:\Users\86182\Documents\cortex\Trimmed_M3_H9.trc
DataRate	CameraRate	NumFrames	NumMarkers	Units	OrigDataRate	OrigDataStartFrame	OrigNumFrames
100.00	100.00	       140	2	mm	100.00	721	       901
Frame#	Time	gripper			box			
		X1	Y1	Z1	X2	Y2	Z2	

721	7.200	267.81699	173.07600	292.32471	268.14774	170.71185	155.91524	
722	7.210	267.81525	173.07719	292.32532	268.14774	170.71187	155.91521	
723	7.220	267.81308	173.07866	292.32605	268.14774	170.71187	155.91519	
724	7.230	267.81091	173.08012	292.32681	268.14774	170.71182	155.91531	
725	7.240	267.80908	173.08139	292.32767	268.14774	170.71167	155.91574	
726	7.250	267.80777	173.08232	292.32849	268.14774	170.71135	155.91656	
727	7.260	267.80707	173.08290	292.32919	268.14771	170.71089	155.91776	
728	7.270	267.80692	173.08316	292.32965	268.14771	170.71036	155.91914	
729	7.280	267.80716	173.08315	292.32977	268.14771	170.70987	155.92041	
730	7.290	267.80762	173.08293	292.32953	268.14767	170.70958	155.92117	
731	7.300	267.80807	173.08253	292.32886	268.14767	170.70961	155.92111	
732	7.310	267.80817	173.08200	292.32776	268.14771	170.70995	155.92024	
733	7.320	267.80750	173.08141	292.32629	268.14771	170.71051	155.91878	
734	7.330	267.80560	173.08084	292.32471	268.14774	170.71118	155.91702	
735	7.340	267.80203	173.08044	292.32324	268.14774	170.71181	155.91537	
736	7.350	267.79681	173.08020	292.32227	268.14777	170.71228	155.91415	
737	7.360	267.79083	173.07982	292.32205	268.14777	170.71248	155.91360	
738	7.370	267.78552	173.07893	292.32263	268.14777	170.71239	155.91386	
739	7.380	267.78247	173.07738	292.32385	268.14777	170.71196	155.91496	
740	7.390	267.78290	173.07523	292.32538	268.14777	170.71124	155.91685	
741	7.400	267.78735	173.07268	292.32672	268.14774	170.71028	155.91936	
742	7.410	267.79523	173.07011	292.32736	268.14771	170.70923	155.92212	
743	7.420	267.80484	173.06804	292.32687	268.14764	170.70827	155.92461	
744	7.430	267.81366	173.06699	292.32513	268.14758	170.70764	155.92622	
745	7.440	267.81931	173.06746	292.32233	268.14749	170.70753	155.92647	
746	7.450	267.82037	173.06978	292.31873	268.14737	170.70799	155.92523	
747	7.460	267.81653	173.07390	292.31482	268.14722	170.70889	155.92281	
748	7.470	267.80859	173.07935	292.31107	268.14706	170.70998	155.91986	
749	7.480	267.79834	173.08516	292.30804	268.14691	170.71095	155.91722	
750	7.490	267.78821	173.09006	292.30646	268.14679	170.71159	155.91551	
751	7.500	267.78030	173.09302	292.30698	268.14673	170.71175	155.91505	
752	7.510	267.77573	173.09367	292.30988	268.14670	170.71141	155.91597	
753	7.520	267.77435	173.09232	292.31470	268.14676	170.71060	155.91812	
754	7.530	267.77542	173.08972	292.32059	268.14691	170.70947	155.92113	
755	7.540	267.77808	173.08675	292.32635	268.14703	170.70828	155.92430	
756	7.550	267.78152	173.08411	292.33081	268.14703	170.70737	155.92671	
757	7.560	267.78516	173.08228	292.33313	268.14682	170.70706	155.92741	
758	7.570	267.78860	173.08142	292.33279	268.14630	170.70753	155.92596	
759	7.580	267.79169	173.08150	292.33008	268.14548	170.70868	155.92258	
760	7.590	267.79437	173.08226	292.32547	268.14435	170.71019	155.91811	
761	7.600	267.79648	173.08334	292.31989	268.14310	170.71173	155.91353	
762	7.610	267.79810	173.08430	292.31442	268.14206	170.71301	155.90973	
763	7.620	267.79974	173.08461	292.31018	268.14160	170.71382	155.90739	
764	7.630	267.80191	173.08386	292.30814	268.14194	170.71410	155.90683	
765	7.640	267.80460	173.08205	292.30853	268.14297	170.71387	155.90785	
766	7.650	267.80695	173.07957	292.31100	268.14429	170.71329	155.90994	
767	7.660	267.80768	173.07710	292.31464	268.14551	170.71252	155.91251	
768	7.670	267.80563	173.07515	292.31860	268.14639	170.71170	155.91504	
769	7.680	267.80020	173.07396	292.32224	268.14688	170.71103	155.91702	
770	7.690	267.79153	173.07365	292.32516	268.14688	170.71068	155.91794	
771	7.700	267.78088	173.07428	292.32721	268.14642	170.71080	155.91743	
772	7.710	267.77054	173.07571	292.32813	268.14563	170.71133	155.91568	
773	7.720	267.76291	173.07768	292.32791	268.14465	170.71210	155.91324	
774	7.730	267.75977	173.07990	292.32678	268.14368	170.71286	155.91080	
775	7.740	267.76181	173.08202	292.32516	268.14297	170.71349	155.90887	
776	7.750	267.76840	173.08366	292.32349	268.14282	170.71387	155.90781	
777	7.760	267.77780	173.08450	292.32199	268.14322	170.71399	155.90768	
778	7.770	267.78809	173.08423	292.32092	268.14410	170.71390	155.90829	
779	7.780	267.79785	173.08281	292.32040	268.14514	170.71370	155.90926	
780	7.790	267.80600	173.08060	292.32050	268.14612	170.71347	155.91028	
781	7.800	267.81161	173.07823	292.32111	268.14688	170.71326	155.91116	
782	7.810	267.81418	173.07634	292.32211	268.14743	170.71309	155.91185	
783	7.820	267.81387	173.07521	292.32333	268.14780	170.71295	155.91237	
784	7.830	267.81146	173.07480	292.32471	268.14801	170.71284	155.91275	
785	7.840	267.80780	173.07506	292.32605	268.14810	170.71274	155.91307	
786	7.850	267.80389	173.07585	292.32730	268.14810	170.71263	155.91336	
787	7.860	267.80051	173.07703	292.32831	268.14807	170.71252	155.91362	
788	7.870	267.79825	173.07851	292.32898	268.14801	170.71243	155.91383	
789	7.880	267.79730	173.08015	292.32913	268.14789	170.71239	155.91393	
790	7.890	267.79733	173.08189	292.32867	268.14771	170.71239	155.91382	
791	7.900	267.79764	173.08368	292.32751	268.14743	170.71249	155.91342	
792	7.910	267.79752	173.08542	292.32574	268.14700	170.71271	155.91270	
793	7.920	267.79660	173.08702	292.32352	268.14648	170.71297	155.91176	
794	7.930	267.79495	173.08833	292.32111	268.14584	170.71324	155.91075	
795	7.940	267.79303	173.08910	292.31900	268.14520	170.71347	155.90988	
796	7.950	267.79147	173.08896	292.31775	268.14481	170.71356	155.90944	
797	7.960	267.79083	173.08775	292.31781	268.14478	170.71347	155.90970	
798	7.970	267.79117	173.08568	292.31927	268.14517	170.71313	155.91074	
799	7.980	267.79211	173.08316	292.32169	268.14581	170.71262	155.91240	
800	7.990	267.79340	173.08073	292.32440	268.14651	170.71199	155.91435	
801	8.000	267.79477	173.07880	292.32669	268.14713	170.71135	155.91631	
802	8.010	267.79611	173.07768	292.32816	268.14749	170.71080	155.91789	
803	8.020	267.79724	173.07758	292.32852	268.14761	170.71049	155.91875	
804	8.030	267.79797	173.07845	292.32767	268.14740	170.71051	155.91862	
805	8.040	267.79803	173.08018	292.32556	268.14688	170.71086	155.91747	
806	8.050	267.79688	173.08273	292.32251	268.14603	170.71150	155.91541	
807	8.060	267.79407	173.08591	292.31897	268.14490	170.71231	155.91281	
808	8.070	267.79013	173.08928	292.31564	268.14362	170.71310	155.91016	
809	8.080	267.78625	173.09209	292.31329	268.14249	170.71376	155.90794	
810	8.090	267.78357	173.09370	292.31244	268.14182	170.71414	155.90663	
811	8.100	267.78244	173.09378	292.31329	268.14191	170.71420	155.90652	
812	8.110	267.78253	173.09238	292.31561	268.14270	170.71394	155.90753	
813	8.120	267.78333	173.08992	292.31897	268.14389	170.71349	155.90926	
814	8.130	267.78448	173.08704	292.32266	268.14514	170.71297	155.91119	
815	8.140	267.78564	173.08432	292.32614	268.14621	170.71248	155.91293	
816	8.150	267.78659	173.08208	292.32892	268.14700	170.71214	155.91417	
817	8.160	267.78757	173.08041	292.33084	268.14755	170.71199	155.91481	
818	8.170	267.78918	173.07932	292.33185	268.14786	170.71201	155.91489	
819	8.180	267.79187	173.07872	292.33197	268.14801	170.71216	155.91455	
820	8.190	267.79562	173.07854	292.33145	268.14804	170.71237	155.91403	
821	8.200	267.79984	173.07866	292.33051	268.14801	170.71257	155.91347	
822	8.210	267.80377	173.07895	292.32941	268.14795	170.71275	155.91299	
823	8.220	267.80692	173.07927	292.32837	268.14789	170.71286	155.91266	
824	8.230	267.80893	173.07959	292.32751	268.14786	170.71292	155.91249	
825	8.240	267.80957	173.07996	292.32693	268.14780	170.71292	155.91248	
826	8.250	267.80884	173.08043	292.32666	268.14777	170.71284	155.91264	
827	8.260	267.80692	173.08095	292.32660	268.14777	170.71271	155.91299	
828	8.270	267.80402	173.08154	292.32660	268.14774	170.71252	155.91348	
829	8.280	267.80042	173.08228	292.32648	268.14774	170.71230	155.91408	
830	8.290	267.79666	173.08316	292.32617	268.14774	170.71207	155.91467	
831	8.300	267.79340	173.08411	292.32562	268.14774	170.71190	155.91510	
832	8.310	267.79129	173.08504	292.32495	268.14774	170.71184	155.91525	
833	8.320	267.79077	173.08572	292.32452	268.14774	170.71188	155.91515	
834	8.330	267.79196	173.08597	292.32452	268.14774	170.71201	155.91483	
835	8.340	267.79453	173.08569	292.32501	268.14777	170.71220	155.91432	
836	8.350	267.79785	173.08501	292.32568	268.14777	170.71242	155.91376	
837	8.360	267.80136	173.08403	292.32623	268.14777	170.71262	155.91324	
838	8.370	267.80472	173.08289	292.32648	268.14777	170.71278	155.91281	
839	8.380	267.80777	173.08165	292.32629	268.14777	170.71291	155.91249	
840	8.390	267.81042	173.08037	292.32578	268.14777	170.71298	155.91229	
841	8.400	267.81256	173.07924	292.32513	268.14777	170.71303	155.91219	
842	8.410	267.81387	173.07848	292.32458	268.14777	170.71303	155.91217	
843	8.420	267.81421	173.07825	292.32443	268.14777	170.71300	155.91226	
844	8.430	267.81366	173.07855	292.32474	268.14777	170.71292	155.91246	
845	8.440	267.81256	173.07918	292.32538	268.14777	170.71278	155.91283	
846	8.450	267.81122	173.07993	292.32623	268.14777	170.71259	155.91335	
847	8.460	267.80984	173.08070	292.32721	268.14777	170.71233	155.91403	
848	8.470	267.80862	173.08139	292.32806	268.14774	170.71202	155.91483	
849	8.480	267.80765	173.08192	292.32861	268.14774	170.71172	155.91560	
850	8.490	267.80692	173.08232	292.32874	268.14774	170.71150	155.91615	
851	8.500	267.80643	173.08260	292.32831	268.14774	170.71143	155.91637	
852	8.510	267.80603	173.08286	292.32739	268.14774	170.71146	155.91628	
853	8.520	267.80569	173.08313	292.32605	268.14774	170.71156	155.91600	
854	8.530	267.80551	173.08339	292.32449	268.14774	170.71175	155.91553	
855	8.540	267.80591	173.08328	292.32291	268.14774	170.71201	155.91486	
856	8.550	267.80746	173.08235	292.32153	268.14774	170.71228	155.91414	
857	8.560	267.81046	173.08031	292.32050	268.14777	170.71249	155.91357	
858	8.570	267.81454	173.07735	292.31989	268.14777	170.71260	155.91327	
859	8.580	267.81888	173.07410	292.31982	268.14777	170.71257	155.91336	
860	8.590	267.82251	173.07121	292.32019	268.14777	170.71239	155.91383	
